<mxfile host="app.diagrams.net" modified="2022-11-16T07:44:52.847Z" agent="5.0 (Macintosh; Intel Mac OS X 10_15_7) AppleWebKit/537.36 (KHTML, like Gecko) Chrome/107.0.0.0 Safari/537.36" etag="wXRAHS_IzPPGKPBval0O" version="20.5.3" type="github">
  <diagram id="Rr7UaAeVeG6RVnHLHCyp" name="Page-1">
    <mxGraphModel dx="2495" dy="1059" grid="1" gridSize="10" guides="1" tooltips="1" connect="1" arrows="1" fold="1" page="1" pageScale="1" pageWidth="850" pageHeight="1100" math="0" shadow="0">
      <root>
        <mxCell id="0" />
        <mxCell id="1" parent="0" />
        <mxCell id="OXf7bL4sMk8lbjEEoocj-6" style="edgeStyle=orthogonalEdgeStyle;rounded=0;orthogonalLoop=1;jettySize=auto;html=1;exitX=1;exitY=0.5;exitDx=0;exitDy=0;entryX=0;entryY=0.5;entryDx=0;entryDy=0;fontSize=18;" edge="1" parent="1" source="OXf7bL4sMk8lbjEEoocj-1" target="OXf7bL4sMk8lbjEEoocj-5">
          <mxGeometry relative="1" as="geometry" />
        </mxCell>
        <mxCell id="OXf7bL4sMk8lbjEEoocj-1" value="&lt;font style=&quot;font-size: 18px;&quot;&gt;从缓存中获取&lt;/font&gt;" style="rounded=0;whiteSpace=wrap;html=1;" vertex="1" parent="1">
          <mxGeometry x="100" y="150" width="120" height="60" as="geometry" />
        </mxCell>
        <mxCell id="OXf7bL4sMk8lbjEEoocj-4" value="" style="edgeStyle=orthogonalEdgeStyle;rounded=0;orthogonalLoop=1;jettySize=auto;html=1;fontSize=18;dashed=1;entryX=1;entryY=0.5;entryDx=0;entryDy=0;" edge="1" parent="1" source="OXf7bL4sMk8lbjEEoocj-2" target="OXf7bL4sMk8lbjEEoocj-12">
          <mxGeometry relative="1" as="geometry">
            <mxPoint y="290" as="targetPoint" />
          </mxGeometry>
        </mxCell>
        <mxCell id="OXf7bL4sMk8lbjEEoocj-9" style="edgeStyle=orthogonalEdgeStyle;rounded=0;orthogonalLoop=1;jettySize=auto;html=1;exitX=1;exitY=0.5;exitDx=0;exitDy=0;entryX=0;entryY=0.5;entryDx=0;entryDy=0;fontSize=18;" edge="1" parent="1" source="OXf7bL4sMk8lbjEEoocj-2" target="OXf7bL4sMk8lbjEEoocj-5">
          <mxGeometry relative="1" as="geometry" />
        </mxCell>
        <mxCell id="OXf7bL4sMk8lbjEEoocj-2" value="&lt;font style=&quot;font-size: 18px;&quot;&gt;根据refresh type判断数据过期时间&lt;/font&gt;" style="rounded=0;whiteSpace=wrap;html=1;" vertex="1" parent="1">
          <mxGeometry x="60" y="260" width="160" height="60" as="geometry" />
        </mxCell>
        <mxCell id="OXf7bL4sMk8lbjEEoocj-11" value="否" style="edgeStyle=orthogonalEdgeStyle;rounded=0;orthogonalLoop=1;jettySize=auto;html=1;exitX=1;exitY=0.5;exitDx=0;exitDy=0;entryX=0;entryY=0.5;entryDx=0;entryDy=0;fontSize=18;" edge="1" parent="1" source="OXf7bL4sMk8lbjEEoocj-5" target="OXf7bL4sMk8lbjEEoocj-10">
          <mxGeometry relative="1" as="geometry" />
        </mxCell>
        <mxCell id="OXf7bL4sMk8lbjEEoocj-21" style="edgeStyle=orthogonalEdgeStyle;rounded=0;orthogonalLoop=1;jettySize=auto;html=1;exitX=0.5;exitY=1;exitDx=0;exitDy=0;entryX=0.1;entryY=0.5;entryDx=0;entryDy=0;entryPerimeter=0;fontSize=18;" edge="1" parent="1" source="OXf7bL4sMk8lbjEEoocj-5" target="OXf7bL4sMk8lbjEEoocj-16">
          <mxGeometry relative="1" as="geometry">
            <Array as="points">
              <mxPoint x="428" y="440" />
            </Array>
          </mxGeometry>
        </mxCell>
        <mxCell id="OXf7bL4sMk8lbjEEoocj-29" value="是&lt;br&gt;或为空" style="edgeLabel;html=1;align=center;verticalAlign=middle;resizable=0;points=[];fontSize=18;" vertex="1" connectable="0" parent="OXf7bL4sMk8lbjEEoocj-21">
          <mxGeometry x="-0.2072" y="1" relative="1" as="geometry">
            <mxPoint as="offset" />
          </mxGeometry>
        </mxCell>
        <mxCell id="OXf7bL4sMk8lbjEEoocj-5" value="缓存是否过期" style="rhombus;whiteSpace=wrap;html=1;fontSize=18;" vertex="1" parent="1">
          <mxGeometry x="345" y="190" width="165" height="80" as="geometry" />
        </mxCell>
        <mxCell id="OXf7bL4sMk8lbjEEoocj-10" value="&lt;font style=&quot;font-size: 18px;&quot;&gt;返回空rsp和11413错误码&lt;/font&gt;" style="rounded=0;whiteSpace=wrap;html=1;" vertex="1" parent="1">
          <mxGeometry x="590" y="200" width="120" height="60" as="geometry" />
        </mxCell>
        <mxCell id="OXf7bL4sMk8lbjEEoocj-12" value="1: 10s&lt;br&gt;其他：120s" style="ellipse;whiteSpace=wrap;html=1;fontSize=18;" vertex="1" parent="1">
          <mxGeometry x="-120" y="250" width="120" height="80" as="geometry" />
        </mxCell>
        <mxCell id="OXf7bL4sMk8lbjEEoocj-16" value="" style="shape=curlyBracket;whiteSpace=wrap;html=1;rounded=1;labelPosition=left;verticalLabelPosition=middle;align=right;verticalAlign=middle;fontSize=18;" vertex="1" parent="1">
          <mxGeometry x="480" y="330" width="20" height="220" as="geometry" />
        </mxCell>
        <mxCell id="OXf7bL4sMk8lbjEEoocj-17" value="&lt;span style=&quot;font-size: 18px;&quot;&gt;A: 已点歌曲正在唱的歌房&lt;/span&gt;" style="rounded=0;whiteSpace=wrap;html=1;" vertex="1" parent="1">
          <mxGeometry x="520" y="330" width="120" height="60" as="geometry" />
        </mxCell>
        <mxCell id="OXf7bL4sMk8lbjEEoocj-18" value="&lt;span style=&quot;font-size: 18px;&quot;&gt;B: 关注的人正在唱的直播间&lt;/span&gt;" style="rounded=0;whiteSpace=wrap;html=1;" vertex="1" parent="1">
          <mxGeometry x="520" y="410" width="120" height="60" as="geometry" />
        </mxCell>
        <mxCell id="OXf7bL4sMk8lbjEEoocj-20" value="&lt;span style=&quot;font-size: 18px;&quot;&gt;C: mixed数据源（member&amp;gt;history&amp;gt;hot）&lt;/span&gt;" style="rounded=0;whiteSpace=wrap;html=1;" vertex="1" parent="1">
          <mxGeometry x="520" y="490" width="210" height="60" as="geometry" />
        </mxCell>
        <mxCell id="OXf7bL4sMk8lbjEEoocj-22" value="各数据源内M+N穿插，总优先级A&amp;gt;B&amp;gt;C" style="ellipse;shape=cloud;whiteSpace=wrap;html=1;fontSize=18;fillColor=#f8cecc;strokeColor=#b85450;" vertex="1" parent="1">
          <mxGeometry x="940" y="200" width="180" height="130" as="geometry" />
        </mxCell>
        <mxCell id="OXf7bL4sMk8lbjEEoocj-23" value="" style="curved=1;endArrow=classic;html=1;rounded=0;fontSize=18;exitX=1;exitY=0.25;exitDx=0;exitDy=0;entryX=0.31;entryY=0.8;entryDx=0;entryDy=0;entryPerimeter=0;fillColor=#f8cecc;strokeColor=#b85450;" edge="1" parent="1" source="OXf7bL4sMk8lbjEEoocj-24" target="OXf7bL4sMk8lbjEEoocj-22">
          <mxGeometry width="50" height="50" relative="1" as="geometry">
            <mxPoint x="510" y="270" as="sourcePoint" />
            <mxPoint x="560" y="220" as="targetPoint" />
            <Array as="points">
              <mxPoint x="950" y="360" />
            </Array>
          </mxGeometry>
        </mxCell>
        <mxCell id="OXf7bL4sMk8lbjEEoocj-28" value="" style="edgeStyle=orthogonalEdgeStyle;rounded=0;orthogonalLoop=1;jettySize=auto;html=1;fontSize=18;" edge="1" parent="1" source="OXf7bL4sMk8lbjEEoocj-24" target="OXf7bL4sMk8lbjEEoocj-27">
          <mxGeometry relative="1" as="geometry" />
        </mxCell>
        <mxCell id="OXf7bL4sMk8lbjEEoocj-24" value="&lt;span style=&quot;font-size: 18px;&quot;&gt;各数据源内M歌房+N直播间排序&lt;/span&gt;" style="rounded=0;whiteSpace=wrap;html=1;" vertex="1" parent="1">
          <mxGeometry x="830" y="410" width="150" height="60" as="geometry" />
        </mxCell>
        <mxCell id="OXf7bL4sMk8lbjEEoocj-26" style="edgeStyle=orthogonalEdgeStyle;rounded=0;orthogonalLoop=1;jettySize=auto;html=1;exitX=0.1;exitY=0.5;exitDx=0;exitDy=0;exitPerimeter=0;fontSize=18;" edge="1" parent="1" source="OXf7bL4sMk8lbjEEoocj-25" target="OXf7bL4sMk8lbjEEoocj-24">
          <mxGeometry relative="1" as="geometry" />
        </mxCell>
        <mxCell id="OXf7bL4sMk8lbjEEoocj-25" value="" style="shape=curlyBracket;whiteSpace=wrap;html=1;rounded=1;labelPosition=left;verticalLabelPosition=middle;align=right;verticalAlign=middle;fontSize=18;rotation=-180;" vertex="1" parent="1">
          <mxGeometry x="760" y="330" width="20" height="220" as="geometry" />
        </mxCell>
        <mxCell id="OXf7bL4sMk8lbjEEoocj-27" value="&lt;span style=&quot;font-size: 18px;&quot;&gt;取前5个房间返回，不够则全返回&lt;/span&gt;" style="rounded=0;whiteSpace=wrap;html=1;" vertex="1" parent="1">
          <mxGeometry x="1060" y="410" width="160" height="60" as="geometry" />
        </mxCell>
        <mxCell id="OXf7bL4sMk8lbjEEoocj-30" value="" style="curved=1;endArrow=classic;html=1;rounded=0;fontSize=18;exitX=1;exitY=0.5;exitDx=0;exitDy=0;entryX=0.31;entryY=0.8;entryDx=0;entryDy=0;entryPerimeter=0;fillColor=#f8cecc;strokeColor=#b85450;" edge="1" parent="1" source="OXf7bL4sMk8lbjEEoocj-17" target="OXf7bL4sMk8lbjEEoocj-31">
          <mxGeometry width="50" height="50" relative="1" as="geometry">
            <mxPoint x="500" y="340" as="sourcePoint" />
            <mxPoint x="795.7999999999997" y="174" as="targetPoint" />
            <Array as="points">
              <mxPoint x="730" y="330" />
            </Array>
          </mxGeometry>
        </mxCell>
        <mxCell id="OXf7bL4sMk8lbjEEoocj-31" value="注意唱歌的人要和用户是同一个国家，否则会被过滤" style="ellipse;shape=cloud;whiteSpace=wrap;html=1;fontSize=18;fillColor=#f8cecc;strokeColor=#b85450;" vertex="1" parent="1">
          <mxGeometry x="740" y="115" width="180" height="130" as="geometry" />
        </mxCell>
      </root>
    </mxGraphModel>
  </diagram>
</mxfile>
